<svg width="97" height="97" viewBox="0 0 97 97" fill="none" xmlns="http://www.w3.org/2000/svg">
<path fill-rule="evenodd" clip-rule="evenodd" d="M47.8982 82.1616C46.3934 80.617 45.794 78.2533 45.5692 75.1707L32.2157 78.0303C31.4749 78.3139 31.1756 77.9853 31.1108 77.3148L31.3982 74.1129C31.5246 73.6072 31.7787 73.1936 32.2393 72.9374L44.102 64.6926L43.5906 47.2054L10.6788 53.1958C9.88967 53.3918 9.52192 53.1003 9.66 52.2087L10.285 47.1335L43.1951 29.1177L42.8379 13.5014C43.2284 8.78313 44.744 5.35953 47.1124 3.96179C48.4185 3.19231 49.0963 3.14272 50.3871 3.81098C52.9123 5.12798 54.4791 8.68631 54.7863 13.6276L54.0993 29.2329L86.6214 47.94L87.139 53.0273C87.2545 53.9178 86.8807 54.2014 86.0996 53.9926L53.3217 47.3158L52.4371 64.7845L64.123 73.278C64.5743 73.5401 64.8235 73.9552 64.9391 74.471L65.1587 77.6784C65.0836 78.3435 64.7736 78.6695 64.0389 78.3703L50.7488 75.2293C50.4551 78.3176 49.8059 80.6682 48.2574 82.1843C48.1122 82.319 48.033 82.2992 47.8982 82.1616Z" fill="#003D53"/>
</svg>
